<svg xmlns="http://www.w3.org/2000/svg" xmlns:xlink="http://www.w3.org/1999/xlink" viewBox="0 0 904.6 949.2"><defs><style>.cls-1{fill:#fff;stroke:#000;stroke-miterlimit:10;}</style></defs><title>big_map_3</title><g id="Background"><image width="579" height="660" transform="scale(1.56 1.44)" xlink:href="../../../../../../../../../Downloads/bmstu-sheme.jpeg.jpg"/></g><g id="Passage_304"><rect class="cls-1" x="263" y="354" width="296.8" height="20.96"/></g><g id="Passage_305"><rect class="cls-1" x="540" y="215.8" width="19.6" height="138.68"/></g><g id="Passage_306"><rect class="cls-1" x="559.6" y="215.8" width="217.7" height="18.93"/></g><g id="Passage_307"><rect class="cls-1" x="762.7" y="234.7" width="14.5" height="197.41"/></g><g id="Passage_303"><rect class="cls-1" x="262.8" y="215.8" width="18.9" height="138.59"/></g><g id="Passage_302"><rect class="cls-1" x="73.7" y="215.8" width="189.1" height="16.23"/></g><g id="Passage_301"><rect class="cls-1" x="73.3" y="231.9" width="14" height="199.49"/></g><g id="Passage_310"><rect class="cls-1" x="507.2" y="426" width="16.5" height="141.97"/></g><g id="Passage_309"><rect class="cls-1" x="507.2" y="568" width="108.5" height="21.63"/></g><g id="Passage_308"><rect class="cls-1" x="764.9" y="567.5" width="13.4" height="166.59"/></g><g id="Passage_315"><rect class="cls-1" x="73.5" y="526.7" width="14.2" height="206.79"/></g><g id="Passage_314"><rect class="cls-1" x="151.3" y="568" width="243" height="18.93"/></g><g id="Passage_313"><rect class="cls-1" x="318.2" y="426.7" width="16.2" height="141.3"/></g><g id="Passage_312"><rect class="cls-1" x="334.5" y="526.7" width="47.5" height="9.53"/></g><g id="Passage_311"><rect class="cls-1" x="358.1" y="513.5" width="23.9" height="13.16"/></g><g id="Room_395"><rect class="cls-1" x="226.3" y="375.3" width="118.2" height="25.69"/><circle class="cls-1" cx="287.8" cy="375.3" r="6.1"/></g><g id="Room_301"><rect class="cls-1" x="291.9" y="401" width="66.3" height="25.69"/><ellipse class="cls-1" cx="326.7" cy="426.5" rx="4.4" ry="12.7"/></g><g id="Room_302"><rect class="cls-1" x="334.5" y="426.7" width="23.7" height="30.42"/><circle class="cls-1" cx="334.7" cy="446.4" r="7.2"/></g><g id="Room_303"><rect class="cls-1" x="291.9" y="426.5" width="26.4" height="30.59"/><circle class="cls-1" cx="318.1" cy="443.4" r="4.2"/></g><g id="Room_304"><rect class="cls-1" x="291.9" y="457.1" width="26.4" height="35.04"/><circle class="cls-1" cx="318.1" cy="475.9" r="4.2"/></g><g id="Room_305"><rect class="cls-1" x="334.5" y="457.1" width="23.7" height="35.04"/><circle class="cls-1" cx="334.1" cy="467" r="3"/></g><g id="Room_306"><rect class="cls-1" x="334.5" y="492.2" width="23.7" height="13.62"/><ellipse class="cls-1" cx="334.2" cy="500.1" rx="4.9" ry="2.7"/></g><g id="Room_307"><rect class="cls-1" x="334.5" y="505.8" width="23.7" height="20.88"/><ellipse class="cls-1" cx="358.4" cy="518.8" rx="3.4" ry="2.6"/></g><g id="Room_308"><rect class="cls-1" x="358.4" y="499" width="23.6" height="14.53"/><ellipse class="cls-1" cx="370.4" cy="513" rx="2.3" ry="3.2"/></g><g id="Room_309"><rect class="cls-1" x="382" y="499" width="12.3" height="37.23"/><circle class="cls-1" cx="381.7" cy="518.8" r="2.6"/></g><g id="Room_310"><rect class="cls-1" x="358.4" y="536.2" width="35.9" height="31.61"/><ellipse class="cls-1" cx="370.4" cy="536.3" rx="3.1" ry="4.3"/></g><g id="Room_311"><ellipse class="cls-1" cx="344.8" cy="536.3" rx="2.9" ry="3.7"/><rect class="cls-1" x="334.5" y="536.2" width="23.7" height="31.8"/></g><g id="Room_312"><rect class="cls-1" x="291.9" y="492.2" width="26.2" height="39.27"/><circle class="cls-1" cx="318.3" cy="510.4" r="3.1"/></g><g id="Room_313"><rect class="cls-1" x="247.6" y="531.4" width="70.5" height="36.57"/><circle class="cls-1" cx="274.3" cy="567.8" r="3"/></g><g id="Room_314"><rect class="cls-1" x="151.3" y="531.4" width="96.4" height="36.57"/><circle class="cls-1" cx="185.6" cy="567.2" r="3.6"/></g><g id="Room_315"><rect class="cls-1" x="121.4" y="531.4" width="29.8" height="81.49"/><circle class="cls-1" cx="150.8" cy="578.1" r="6"/></g><g id="Room_316"><rect class="cls-1" x="151.3" y="586.9" width="57.5" height="25.99"/><ellipse class="cls-1" cx="193.2" cy="586.7" rx="4" ry="6.3"/></g><g id="Room_317"><rect class="cls-1" x="208.7" y="586.9" width="65.5" height="25.99"/><ellipse class="cls-1" cx="259.3" cy="586.7" rx="5.6" ry="8.6"/></g><g id="Room_318"><rect class="cls-1" x="274.3" y="586.9" width="91.3" height="25.99"/><ellipse class="cls-1" cx="295.3" cy="586.7" rx="5.7" ry="8.6"/></g><g id="Steps_303"><rect class="cls-1" x="365.6" y="586.9" width="28.7" height="25.99"/></g><g id="Room_319"><circle class="cls-1" cx="88.4" cy="577.5" r="5.4"/><rect class="cls-1" x="87.7" y="557.5" width="33.7" height="55.4"/></g><g id="Room_320"><rect class="cls-1" x="52.6" y="557.5" width="21" height="14.66"/><circle class="cls-1" cx="74" cy="567.2" r="3.6"/></g><g id="Room_321"><rect class="cls-1" x="52.6" y="572.2" width="21.4" height="14.58"/><circle class="cls-1" cx="74.3" cy="579.7" r="3.2"/></g><g id="Room_322"><rect class="cls-1" x="52.6" y="586.7" width="21" height="24.51"/><circle class="cls-1" cx="74" cy="602.6" r="3.6"/></g><g id="Room_323"><rect class="cls-1" x="52.6" y="611" width="21" height="24.51"/><circle class="cls-1" cx="74" cy="626.8" r="3.6"/></g><g id="Room_324"><rect class="cls-1" x="52.6" y="635.5" width="21" height="24.51"/><circle class="cls-1" cx="74" cy="651.3" r="3.6"/></g><g id="Room_325"><rect class="cls-1" x="52.6" y="660" width="21" height="24.51"/><circle class="cls-1" cx="74" cy="675.8" r="3.6"/></g><g id="Room_326"><rect class="cls-1" x="52.6" y="684.5" width="21" height="24.51"/><circle class="cls-1" cx="74" cy="700.3" r="3.6"/></g><g id="Room_327"><rect class="cls-1" x="52.6" y="709" width="21" height="24.51"/><circle class="cls-1" cx="74" cy="724.9" r="3.6"/></g><g id="Room_328"><rect class="cls-1" x="52.6" y="733.5" width="55.4" height="24.42"/><ellipse class="cls-1" cx="81.5" cy="733.3" rx="3.9" ry="6.4"/></g><g id="Room_329"><rect class="cls-1" x="87.7" y="709" width="20.3" height="24.51"/><ellipse class="cls-1" cx="87.5" cy="715.9" rx="6" ry="3.9"/></g><g id="Room_330"><rect class="cls-1" x="87.7" y="684.5" width="20.3" height="24.51"/><ellipse class="cls-1" cx="87.5" cy="691.4" rx="6" ry="3.9"/></g><g id="Room_331"><rect class="cls-1" x="87.7" y="660" width="20.3" height="24.51"/><ellipse class="cls-1" cx="87.5" cy="666.9" rx="6" ry="3.9"/></g><g id="Room_332"><rect class="cls-1" x="87.7" y="635.5" width="20.3" height="24.51"/><ellipse class="cls-1" cx="87.5" cy="642.4" rx="6" ry="3.9"/></g><g id="Room_333"><rect class="cls-1" x="87.7" y="612.3" width="20.3" height="23.24"/><ellipse class="cls-1" cx="87.5" cy="617.8" rx="6" ry="3.9"/></g><g id="Steps_301"><rect class="cls-1" x="52.6" y="526.7" width="21" height="30.76"/></g><g id="Steps_302"><rect class="cls-1" x="87.7" y="526.7" width="20.3" height="30.76"/></g><g id="Room_300"><rect class="cls-1" x="52.6" y="446.3" width="55.4" height="80.45"/><ellipse class="cls-1" cx="81.3" cy="526.5" rx="3.7" ry="13.5"/></g><g id="Room_334"><rect class="cls-1" x="52.6" y="424.7" width="21" height="21.63"/><ellipse class="cls-1" cx="73.5" cy="428" rx="4.9" ry="2.7"/></g><g id="Room_335"><rect class="cls-1" x="52.6" y="403.7" width="21" height="20.96"/><ellipse class="cls-1" cx="73.7" cy="416.9" rx="4.9" ry="2.7"/></g><g id="Room_336"><rect class="cls-1" x="52.6" y="382.7" width="21" height="20.96"/><ellipse class="cls-1" cx="73.7" cy="395.9" rx="4.9" ry="2.7"/></g><g id="Room_337"><rect class="cls-1" x="52.6" y="361.8" width="21" height="20.96"/><ellipse class="cls-1" cx="73.7" cy="375" rx="4.9" ry="2.7"/></g><g id="Room_338"><rect class="cls-1" x="52.6" y="340.8" width="21" height="20.96"/><ellipse class="cls-1" cx="73.7" cy="354" rx="4.9" ry="2.7"/></g><g id="Room_339"><rect class="cls-1" x="52.6" y="319.9" width="21" height="20.96"/><ellipse class="cls-1" cx="73.7" cy="333.1" rx="4.9" ry="2.7"/></g><g id="Room_340"><rect class="cls-1" x="52.6" y="298.9" width="21" height="20.96"/><ellipse class="cls-1" cx="73.7" cy="312.1" rx="4.9" ry="2.7"/></g><g id="Room_341"><rect class="cls-1" x="52.6" y="278" width="21" height="20.96"/><ellipse class="cls-1" cx="73.7" cy="291.1" rx="4.9" ry="2.7"/></g><g id="Room_342"><rect class="cls-1" x="52.6" y="257" width="21" height="20.96"/><ellipse class="cls-1" cx="73.7" cy="270.2" rx="4.9" ry="2.7"/></g><g id="Room_343"><rect class="cls-1" x="52.6" y="236" width="21" height="20.96"/><ellipse class="cls-1" cx="73.7" cy="249.2" rx="4.9" ry="2.7"/></g><g id="Room_344"><rect class="cls-1" x="52.6" y="190.4" width="21" height="46.31"/><ellipse class="cls-1" cx="73.7" cy="223.9" rx="4.9" ry="2.7"/></g><g id="Room_345"><rect class="cls-1" x="87.7" y="386.5" width="20.3" height="44.96"/><circle class="cls-1" cx="87.1" cy="404.1" r="3.5"/></g><g id="Room_346"><rect class="cls-1" x="87.3" y="360.1" width="20.7" height="26.37"/><ellipse class="cls-1" cx="87.5" cy="379" rx="5.2" ry="3.7"/></g><g id="Room_347"><rect class="cls-1" x="87.7" y="316.5" width="20.3" height="43.61"/><circle class="cls-1" cx="87.5" cy="327.8" r="2.5"/></g><g id="Room_348"><circle class="cls-1" cx="86.7" cy="277.3" r="4.4"/><rect class="cls-1" x="87.3" y="257" width="20.7" height="59.49"/></g><g id="Steps_304"><rect class="cls-1" x="87.3" y="232" width="20.5" height="25.01"/></g><g id="Room_349"><rect class="cls-1" x="73.3" y="431.4" width="34.7" height="14.87"/><ellipse class="cls-1" cx="82.1" cy="431.2" rx="1.5" ry="3.9"/></g><g id="Room_350"><ellipse class="cls-1" cx="80.9" cy="214.1" rx="2.7" ry="5.5"/><rect class="cls-1" x="73.5" y="190.4" width="41.6" height="25.26"/></g><g id="Room_351"><rect class="cls-1" x="115.1" y="190.4" width="37.5" height="25.26"/><ellipse class="cls-1" cx="142.7" cy="215.9" rx="2.9" ry="5.3"/></g><g id="Room_352"><rect class="cls-1" x="152.7" y="190.4" width="46.3" height="25.07"/><ellipse class="cls-1" cx="184.6" cy="215.1" rx="2.9" ry="4.5"/></g><g id="Room_353"><ellipse class="cls-1" cx="214.5" cy="214.1" rx="5.4" ry="5.5"/><rect class="cls-1" x="198.2" y="190.4" width="42.6" height="25.07"/></g><g id="Room_354"><ellipse class="cls-1" cx="256" cy="214.1" rx="5.3" ry="5.5"/><rect class="cls-1" x="240.8" y="190.4" width="40.9" height="24.73"/></g><g id="Room_355"><ellipse class="cls-1" cx="134.4" cy="233.3" rx="5.4" ry="5.5"/><rect class="cls-1" x="107.8" y="232" width="42.1" height="25.01"/></g><g id="Room_356"><ellipse class="cls-1" cx="176.3" cy="233.3" rx="5.4" ry="5.5"/><rect class="cls-1" x="149.9" y="232" width="41.9" height="25.01"/></g><g id="Room_357"><ellipse class="cls-1" cx="218.2" cy="233.3" rx="5.4" ry="5.5"/><rect class="cls-1" x="191.8" y="232" width="41.9" height="25.01"/></g><g id="Steps_305"><rect class="cls-1" x="233.7" y="232" width="29.1" height="25.01"/></g><g id="Room_358"><rect class="cls-1" x="226.3" y="257" width="36.5" height="40.23"/><ellipse class="cls-1" cx="262.3" cy="270.2" rx="4.6" ry="2.7"/></g><g id="Room_359"><rect class="cls-1" x="226.3" y="297.2" width="36" height="33.13"/><circle class="cls-1" cx="261.9" cy="315.9" r="6.5"/></g><g id="Room_360"><rect class="cls-1" x="226.3" y="330.4" width="36.5" height="24"/><ellipse class="cls-1" cx="263" cy="342.7" rx="7.6" ry="3.2"/></g><g id="Steps_306"><rect class="cls-1" x="226.3" y="354.4" width="36.5" height="20.62"/></g><g id="Room_361"><rect class="cls-1" x="281.7" y="315.9" width="78.9" height="38.45"/><circle class="cls-1" cx="346.2" cy="353" r="7.1"/></g><g id="Room_362"><rect class="cls-1" x="360.7" y="315.9" width="76.1" height="38.45"/><circle class="cls-1" cx="419.9" cy="354.4" r="8.5"/></g><g id="Room_363"><rect class="cls-1" x="436.7" y="315.9" width="76.1" height="38.45"/><ellipse class="cls-1" cx="498.6" cy="353.7" rx="4.6" ry="11"/></g><g id="Room_364"><rect class="cls-1" x="512.8" y="315.9" width="27.2" height="38.54"/><ellipse class="cls-1" cx="529.3" cy="354.4" rx="3.7" ry="8.5"/></g><g id="Room_365"><rect class="cls-1" x="344.5" y="375.3" width="46.1" height="25.69"/><ellipse class="cls-1" cx="377.9" cy="374.6" rx="4.1" ry="10"/></g><g id="Lift_301"><rect class="cls-1" x="390.6" y="375.3" width="25.7" height="25.69"/></g><g id="Steps_307"><rect class="cls-1" x="416.3" y="375.3" width="36" height="25.69"/></g><g id="Lift_302"><rect class="cls-1" x="452.1" y="375.3" width="28.8" height="25.69"/></g><g id="Room_366"><rect class="cls-1" x="480.9" y="400.5" width="66.3" height="25.69"/><ellipse class="cls-1" cx="515.7" cy="426" rx="4.4" ry="12.7"/></g><g id="Room_374"><rect class="cls-1" x="523.7" y="536.1" width="56.6" height="31.8"/><ellipse class="cls-1" cx="539.3" cy="567.5" rx="4" ry="7.4"/></g><g id="Room_373"><rect class="cls-1" x="480.9" y="491.6" width="26.2" height="39.27"/><circle class="cls-1" cx="507.3" cy="509.9" r="3.1"/></g><g id="Room_372"><rect class="cls-1" x="523.5" y="505.3" width="23.7" height="30.53"/><ellipse class="cls-1" cx="523.5" cy="518.8" rx="3.4" ry="2.6"/></g><g id="Room_371"><rect class="cls-1" x="523.5" y="491.6" width="23.7" height="13.62"/><ellipse class="cls-1" cx="523.2" cy="499.6" rx="4.9" ry="2.7"/></g><g id="Room_370"><rect class="cls-1" x="523.5" y="456.6" width="23.7" height="35.04"/><circle class="cls-1" cx="523.1" cy="466.5" r="3"/></g><g id="Room_369"><rect class="cls-1" x="480.9" y="456.6" width="26.4" height="35.04"/><circle class="cls-1" cx="507.1" cy="475.4" r="4.2"/></g><g id="Room_368"><rect class="cls-1" x="480.9" y="426" width="26.4" height="30.59"/><circle class="cls-1" cx="507.1" cy="442.9" r="4.2"/></g><g id="Room_367"><rect class="cls-1" x="523.5" y="426.2" width="23.7" height="30.42"/><circle class="cls-1" cx="523.7" cy="445.9" r="7.2"/></g><g id="Room_375"><rect class="cls-1" x="523.1" y="589.6" width="92.6" height="35.16"/><ellipse class="cls-1" cx="598.7" cy="589.1" rx="4.8" ry="7.6"/></g><g id="Room_376"><rect class="cls-1" x="615.7" y="567.5" width="106.5" height="57.27"/><circle class="cls-1" cx="615.8" cy="580.1" r="5.2"/></g><g id="Steps_308"><rect class="cls-1" x="507.2" y="589.6" width="15.9" height="35.16"/></g><g id="Room_389"><rect class="cls-1" x="722.2" y="494.3" width="76.7" height="73.25"/><ellipse class="cls-1" cx="771.2" cy="566.5" rx="3.2" ry="12.4"/></g><g id="Room_388"><rect class="cls-1" x="722.2" y="567.5" width="42.3" height="68.81"/><circle class="cls-1" cx="764.9" cy="627.6" r="3.6"/></g><g id="Room_387"><rect class="cls-1" x="743.5" y="636.3" width="21" height="24.51"/><circle class="cls-1" cx="764.9" cy="652.1" r="3.6"/></g><g id="Room_386"><rect class="cls-1" x="743.5" y="660.8" width="21" height="24.51"/><circle class="cls-1" cx="764.9" cy="676.7" r="3.6"/></g><g id="Room_385"><rect class="cls-1" x="743.5" y="685.3" width="21" height="24.51"/><circle class="cls-1" cx="764.9" cy="701.2" r="3.6"/></g><g id="Room_384"><rect class="cls-1" x="743.5" y="709.8" width="21" height="24.51"/><circle class="cls-1" cx="764.9" cy="725.7" r="3.6"/></g><g id="Room_383"><rect class="cls-1" x="743.5" y="734.3" width="55.4" height="24.42"/><ellipse class="cls-1" cx="772.4" cy="734.1" rx="3.9" ry="6.4"/></g><g id="Room_382"><rect class="cls-1" x="778.6" y="709.8" width="20.3" height="24.51"/><ellipse class="cls-1" cx="778.4" cy="716.7" rx="6" ry="3.9"/></g><g id="Room_381"><rect class="cls-1" x="778.6" y="685.3" width="20.3" height="24.51"/><ellipse class="cls-1" cx="778.4" cy="692.2" rx="6" ry="3.9"/></g><g id="Room_380"><rect class="cls-1" x="778.6" y="660.8" width="20.3" height="24.51"/><ellipse class="cls-1" cx="778.4" cy="667.7" rx="6" ry="3.9"/></g><g id="Room_379"><rect class="cls-1" x="778.6" y="636.3" width="20.3" height="24.51"/><ellipse class="cls-1" cx="778.4" cy="643.2" rx="6" ry="3.9"/></g><g id="Room_377"><ellipse class="cls-1" cx="778.3" cy="599.1" rx="3.5" ry="11.2"/><rect class="cls-1" x="778.6" y="585.2" width="20.3" height="27.86"/></g><g id="Room_378"><rect class="cls-1" x="778.6" y="613.1" width="20.3" height="23.24"/><ellipse class="cls-1" cx="778.4" cy="618.7" rx="6" ry="3.9"/></g><g id="Steps_313"><rect class="cls-1" x="778.3" y="567.6" width="20.6" height="17.63"/></g><g id="Steps_312"><rect class="cls-1" x="740.9" y="410.5" width="21.8" height="21.63"/></g><g id="Room_303ю"><rect class="cls-1" x="740.9" y="379.5" width="21.8" height="30.93"/><ellipse class="cls-1" cx="763.3" cy="404.4" rx="6.7" ry="1.5"/></g><g id="Room_306ю"><rect class="cls-1" x="740.9" y="349.1" width="21.8" height="30.42"/><ellipse class="cls-1" cx="762" cy="368.5" rx="5.3" ry="3.9"/></g><g id="Room_307ю"><rect class="cls-1" x="740.9" y="315.9" width="21.8" height="33.21"/><circle class="cls-1" cx="763.2" cy="328.4" r="4.1"/></g><g id="Room_308ю"><rect class="cls-1" x="740.9" y="252.8" width="21.8" height="63.13"/><ellipse class="cls-1" cx="763.3" cy="292.1" rx="6.7" ry="5.4"/></g><g id="Steps_311"><rect class="cls-1" x="740.9" y="234.7" width="21.8" height="18.08"/></g><g id="Room_301ю"><rect class="cls-1" x="740.9" y="432.1" width="58" height="20.96"/><ellipse class="cls-1" cx="771.2" cy="432.1" rx="4.9" ry="3.3"/></g><g id="Room_302ю"><rect class="cls-1" x="777.3" y="395" width="21.6" height="37.1"/><ellipse class="cls-1" cx="777.3" cy="419" rx="5.7" ry="2.7"/></g><g id="Room_304ю"><rect class="cls-1" x="777.3" y="359.3" width="21.6" height="35.75"/><ellipse class="cls-1" cx="776.7" cy="385.6" rx="9.4" ry="2"/></g><g id="Room_305ю"><rect class="cls-1" x="777.3" y="315.9" width="21.6" height="43.35"/><ellipse class="cls-1" cx="776.7" cy="345.9" rx="9.4" ry="3.2"/></g><g id="Room_309ю"><rect class="cls-1" x="777.3" y="284.3" width="21.6" height="31.56"/><ellipse class="cls-1" cx="777.1" cy="298.8" rx="5.9" ry="1.3"/></g><g id="Room_310ю"><rect class="cls-1" x="777.3" y="252.8" width="21.6" height="31.56"/><ellipse class="cls-1" cx="776.5" cy="271.3" rx="6.5" ry="8.4"/></g><g id="Room_311ю"><rect class="cls-1" x="777.3" y="215.8" width="21.6" height="37.01"/><ellipse class="cls-1" cx="778" cy="228.6" rx="8" ry="3.4"/></g><g id="Room_312ю"><rect class="cls-1" x="762" y="191.9" width="36.9" height="23.83"/><ellipse class="cls-1" cx="770" cy="215.8" rx="5.8" ry="9.3"/></g><g id="Room_314ю"><rect class="cls-1" x="700.4" y="234.7" width="40.6" height="23.66"/><ellipse class="cls-1" cx="713.1" cy="234.6" rx="3.3" ry="6"/></g><g id="Room_316ю"><rect class="cls-1" x="660.3" y="191.9" width="40.1" height="24"/><ellipse class="cls-1" cx="680.9" cy="215.9" rx="4.8" ry="9.3"/></g><g id="Room_317ю"><rect class="cls-1" x="660.3" y="234.7" width="40.1" height="23.66"/><ellipse class="cls-1" cx="671.2" cy="234.5" rx="2.8" ry="9.3"/></g><g id="Room_319ю"><rect class="cls-1" x="620.1" y="191.9" width="40.2" height="23.83"/><ellipse class="cls-1" cx="647.3" cy="215.8" rx="2.5" ry="9.2"/></g><g id="Room_313ю"><rect class="cls-1" x="728.6" y="191.9" width="33.4" height="24"/><ellipse class="cls-1" cx="748.6" cy="215.8" rx="3.3" ry="6.1"/></g><g id="Room_315ю"><rect class="cls-1" x="700.4" y="191.9" width="28.2" height="24"/><ellipse class="cls-1" cx="718.3" cy="215.9" rx="5.2" ry="6.3"/></g><g id="Room_318ю"><rect class="cls-1" x="620.1" y="234.7" width="40.2" height="23.66"/><ellipse class="cls-1" cx="651.7" cy="234.6" rx="3.2" ry="6"/></g><g id="Room_320ю"><rect class="cls-1" x="588.7" y="234.3" width="31.4" height="24.08"/><ellipse class="cls-1" cx="610.1" cy="233.7" rx="3.2" ry="8.5"/></g><g id="Room_321ю"><rect class="cls-1" x="576.8" y="191.9" width="43.3" height="24"/><ellipse class="cls-1" cx="589.7" cy="216.1" rx="5.1" ry="6.4"/></g><g id="Room_322ю"><rect class="cls-1" x="540" y="191.9" width="36.8" height="24"/><ellipse class="cls-1" cx="550.8" cy="215.8" rx="3.7" ry="9.3"/></g><g id="Steps_310"><rect class="cls-1" x="559.6" y="234.7" width="29.1" height="23.66"/></g><g id="Room_323ю"><rect class="cls-1" x="524.1" y="191.7" width="15.9" height="37.86"/><ellipse class="cls-1" cx="540.1" cy="220.7" rx="7" ry="4.6"/></g><g id="Room_324ю"><rect class="cls-1" x="559.6" y="258.4" width="29.1" height="21.3"/><ellipse class="cls-1" cx="558.7" cy="268" rx="4.2" ry="3.2"/></g><g id="Room_325ю"><rect class="cls-1" x="559.6" y="279.6" width="29.1" height="25.35"/><ellipse class="cls-1" cx="559.1" cy="291.3" rx="8.3" ry="4.6"/></g><g id="Room_326ю"><rect class="cls-1" x="559.6" y="305" width="29.1" height="23.39"/><ellipse class="cls-1" cx="558.7" cy="313.8" rx="5.9" ry="4.4"/></g><g id="Room_327ю"><rect class="cls-1" x="559.6" y="328.4" width="29.1" height="25.29"/><ellipse class="cls-1" cx="560.1" cy="340.1" rx="7.3" ry="2.6"/></g><g id="Steps_309"><rect class="cls-1" x="559.8" y="354.4" width="28.9" height="20.54"/></g><g id="Room_328ю"><rect class="cls-1" x="547.1" y="374.6" width="41.6" height="66.75"/><ellipse class="cls-1" cx="553.9" cy="374" rx="3" ry="5.5"/></g><g id="Room_329ю"><rect class="cls-1" x="520.1" y="375" width="27" height="25.52"/><ellipse class="cls-1" cx="535" cy="375" rx="1.9" ry="6.4"/></g><g id="Room_330ю"><rect class="cls-1" x="480.9" y="375" width="39.2" height="25.52"/><ellipse class="cls-1" cx="505.8" cy="373.4" rx="2.7" ry="6.2"/></g></svg>