<svg xmlns="http://www.w3.org/2000/svg" xmlns:xlink="http://www.w3.org/1999/xlink" viewBox="0 0 904.6 949.2"><defs><style>.cls-1{fill:#fff;stroke:#000;stroke-miterlimit:10;}</style></defs><title>big_map_4</title><g id="Background"><image width="579" height="660" transform="scale(1.56 1.44)" xlink:href="../../../../../../../../../Downloads/bmstu-sheme.jpeg.jpg"/></g><g id="Passage_1"><rect class="cls-1" x="263" y="354" width="296.8" height="20.96"/></g><g id="Passage_2"><rect class="cls-1" x="540" y="215.8" width="19.6" height="138.68"/></g><g id="Passage_3"><rect class="cls-1" x="559.6" y="215.8" width="217.7" height="18.93"/></g><g id="Passage_4"><rect class="cls-1" x="762.7" y="234.7" width="14.5" height="197.41"/></g><g id="Passage_5"><rect class="cls-1" x="262.8" y="215.8" width="18.9" height="138.59"/></g><g id="Passage_6"><rect class="cls-1" x="73.7" y="215.8" width="189.1" height="16.23"/></g><g id="Passage_7"><rect class="cls-1" x="73.3" y="231.9" width="14" height="199.49"/></g><g id="Steps_2"><rect class="cls-1" x="52.6" y="526.7" width="21" height="30.76"/></g><g id="Steps_3"><rect class="cls-1" x="87.7" y="526.7" width="20.3" height="30.76"/></g><g id="Room_201"><rect class="cls-1" x="52.6" y="446.3" width="55.4" height="80.45"/></g><g id="Room_334"><rect class="cls-1" x="52.6" y="424.7" width="21" height="21.63"/><ellipse class="cls-1" cx="73.5" cy="428" rx="4.9" ry="2.7"/></g><g id="Room_335"><rect class="cls-1" x="52.6" y="403.7" width="21" height="20.96"/><ellipse class="cls-1" cx="73.7" cy="416.9" rx="4.9" ry="2.7"/></g><g id="Room_336"><rect class="cls-1" x="52.6" y="382.7" width="21" height="20.96"/><ellipse class="cls-1" cx="73.7" cy="395.9" rx="4.9" ry="2.7"/></g><g id="Room_337"><rect class="cls-1" x="52.6" y="361.8" width="21" height="20.96"/><ellipse class="cls-1" cx="73.7" cy="375" rx="4.9" ry="2.7"/></g><g id="Room_338"><rect class="cls-1" x="52.6" y="340.8" width="21" height="20.96"/><ellipse class="cls-1" cx="73.7" cy="354" rx="4.9" ry="2.7"/></g><g id="Room_339"><rect class="cls-1" x="52.6" y="319.9" width="21" height="20.96"/><ellipse class="cls-1" cx="73.7" cy="333.1" rx="4.9" ry="2.7"/></g><g id="Room_340"><rect class="cls-1" x="52.6" y="298.9" width="21" height="20.96"/><ellipse class="cls-1" cx="73.7" cy="312.1" rx="4.9" ry="2.7"/></g><g id="Room_341"><rect class="cls-1" x="52.6" y="278" width="21" height="20.96"/><ellipse class="cls-1" cx="73.7" cy="291.1" rx="4.9" ry="2.7"/></g><g id="Room_342"><rect class="cls-1" x="52.6" y="257" width="21" height="20.96"/><ellipse class="cls-1" cx="73.7" cy="270.2" rx="4.9" ry="2.7"/></g><g id="Room_343"><rect class="cls-1" x="52.6" y="236" width="21" height="20.96"/><ellipse class="cls-1" cx="73.7" cy="249.2" rx="4.9" ry="2.7"/></g><g id="Room_344"><rect class="cls-1" x="52.6" y="190.4" width="21" height="46.31"/><ellipse class="cls-1" cx="73.7" cy="223.9" rx="4.9" ry="2.7"/></g><g id="Room_345"><rect class="cls-1" x="87.7" y="386.5" width="20.3" height="44.96"/><circle class="cls-1" cx="87.1" cy="404.1" r="3.5"/></g><g id="Room_346"><rect class="cls-1" x="87.3" y="360.1" width="20.7" height="26.37"/><ellipse class="cls-1" cx="87.5" cy="379" rx="5.2" ry="3.7"/></g><g id="Room_347"><rect class="cls-1" x="87.7" y="316.5" width="20.3" height="43.61"/><circle class="cls-1" cx="87.5" cy="327.8" r="2.5"/></g><g id="Room_348"><circle class="cls-1" cx="86.7" cy="277.3" r="4.4"/><rect class="cls-1" x="87.3" y="257" width="20.7" height="59.49"/></g><g id="Steps_4"><rect class="cls-1" x="87.3" y="232" width="20.5" height="25.01"/></g><g id="Room_349"><rect class="cls-1" x="73.3" y="431.4" width="34.7" height="14.87"/><ellipse class="cls-1" cx="82.1" cy="431.2" rx="1.5" ry="3.9"/></g><g id="Room_350"><ellipse class="cls-1" cx="80.9" cy="214.1" rx="2.7" ry="5.5"/><rect class="cls-1" x="73.5" y="190.4" width="41.6" height="25.26"/></g><g id="Room_351"><rect class="cls-1" x="115.1" y="190.4" width="37.5" height="25.26"/><ellipse class="cls-1" cx="142.7" cy="215.9" rx="2.9" ry="5.3"/></g><g id="Room_352"><rect class="cls-1" x="152.7" y="190.4" width="46.3" height="25.07"/><ellipse class="cls-1" cx="184.6" cy="215.1" rx="2.9" ry="4.5"/></g><g id="Room_353"><ellipse class="cls-1" cx="214.5" cy="214.1" rx="5.4" ry="5.5"/><rect class="cls-1" x="198.2" y="190.4" width="42.6" height="25.07"/></g><g id="Room_354"><ellipse class="cls-1" cx="256" cy="214.1" rx="5.3" ry="5.5"/><rect class="cls-1" x="240.8" y="190.4" width="40.9" height="24.73"/></g><g id="Room_355"><ellipse class="cls-1" cx="134.4" cy="233.3" rx="5.4" ry="5.5"/><rect class="cls-1" x="107.8" y="232" width="42.1" height="25.01"/></g><g id="Room_356"><ellipse class="cls-1" cx="176.3" cy="233.3" rx="5.4" ry="5.5"/><rect class="cls-1" x="149.9" y="232" width="41.9" height="25.01"/></g><g id="Room_357"><ellipse class="cls-1" cx="218.2" cy="233.3" rx="5.4" ry="5.5"/><rect class="cls-1" x="191.8" y="232" width="41.9" height="25.01"/></g><g id="Steps_5"><rect class="cls-1" x="233.7" y="232" width="29.1" height="25.01"/></g><g id="Room_358"><rect class="cls-1" x="226.3" y="257" width="36.5" height="40.23"/><ellipse class="cls-1" cx="262.3" cy="270.2" rx="4.6" ry="2.7"/></g><g id="Room_359"><rect class="cls-1" x="226.3" y="297.2" width="36" height="33.13"/><circle class="cls-1" cx="261.9" cy="315.9" r="6.5"/></g><g id="Room_360"><rect class="cls-1" x="226.3" y="330.4" width="36.5" height="24"/><ellipse class="cls-1" cx="263" cy="342.7" rx="7.6" ry="3.2"/></g><g id="Steps_6"><rect class="cls-1" x="226.3" y="354.4" width="36.5" height="20.62"/></g><g id="Room_361"><rect class="cls-1" x="281.7" y="315.9" width="78.9" height="38.45"/><circle class="cls-1" cx="346.2" cy="353" r="7.1"/></g><g id="Room_362"><rect class="cls-1" x="360.7" y="315.9" width="76.1" height="38.45"/><circle class="cls-1" cx="419.9" cy="354.4" r="8.5"/></g><g id="Room_363"><rect class="cls-1" x="436.7" y="315.9" width="76.1" height="38.45"/><ellipse class="cls-1" cx="498.6" cy="353.7" rx="4.6" ry="11"/></g><g id="Room_364"><rect class="cls-1" x="512.8" y="315.9" width="27.2" height="38.54"/><ellipse class="cls-1" cx="529.3" cy="354.4" rx="3.7" ry="8.5"/></g><g id="Room_365"><rect class="cls-1" x="344.5" y="375.3" width="46.1" height="25.69"/><ellipse class="cls-1" cx="377.9" cy="374.6" rx="4.1" ry="10"/></g><g id="Lift_1"><rect class="cls-1" x="390.6" y="375.3" width="25.7" height="25.69"/></g><g id="Steps_7"><rect class="cls-1" x="416.3" y="375.3" width="36" height="25.69"/></g><g id="Lift_2"><rect class="cls-1" x="452.1" y="375.3" width="28.8" height="25.69"/></g><g id="Steps_10"><rect class="cls-1" x="740.9" y="410.5" width="21.8" height="21.63"/></g><g id="Room_398"><rect class="cls-1" x="740.9" y="379.5" width="21.8" height="30.93"/><ellipse class="cls-1" cx="763.3" cy="404.4" rx="6.7" ry="1.5"/></g><g id="Room_399"><rect class="cls-1" x="740.9" y="349.1" width="21.8" height="30.42"/><ellipse class="cls-1" cx="762" cy="368.5" rx="5.3" ry="3.9"/></g><g id="Room_3001"><rect class="cls-1" x="740.9" y="315.9" width="21.8" height="33.21"/><circle class="cls-1" cx="763.2" cy="328.4" r="4.1"/></g><g id="Room_3002"><rect class="cls-1" x="740.9" y="252.8" width="21.8" height="63.13"/><ellipse class="cls-1" cx="763.3" cy="292.1" rx="6.7" ry="5.4"/></g><g id="Steps_11"><rect class="cls-1" x="740.9" y="234.7" width="21.8" height="18.08"/></g><g id="Room_3003"><rect class="cls-1" x="740.9" y="432.1" width="58" height="20.96"/><ellipse class="cls-1" cx="771.2" cy="432.1" rx="4.9" ry="3.3"/></g><g id="Room_3004"><rect class="cls-1" x="777.3" y="395" width="21.6" height="37.1"/><ellipse class="cls-1" cx="777.3" cy="419" rx="5.7" ry="2.7"/></g><g id="Room_3005"><rect class="cls-1" x="777.3" y="359.3" width="21.6" height="35.75"/><ellipse class="cls-1" cx="776.7" cy="385.6" rx="9.4" ry="2"/></g><g id="Room_3006"><rect class="cls-1" x="777.3" y="315.9" width="21.6" height="43.35"/><ellipse class="cls-1" cx="776.7" cy="345.9" rx="9.4" ry="3.2"/></g><g id="Room_3007"><rect class="cls-1" x="777.3" y="284.3" width="21.6" height="31.56"/><ellipse class="cls-1" cx="777.1" cy="298.8" rx="5.9" ry="1.3"/></g><g id="Room_3008"><rect class="cls-1" x="777.3" y="252.8" width="21.6" height="31.56"/><ellipse class="cls-1" cx="776.5" cy="271.3" rx="6.5" ry="8.4"/></g><g id="Room_30009"><rect class="cls-1" x="777.3" y="215.8" width="21.6" height="37.01"/><ellipse class="cls-1" cx="778" cy="228.6" rx="8" ry="3.4"/></g><g id="Room_3010"><rect class="cls-1" x="762" y="191.9" width="36.9" height="23.83"/><ellipse class="cls-1" cx="770" cy="215.8" rx="5.8" ry="9.3"/></g><g id="Room_3011"><rect class="cls-1" x="700.4" y="234.7" width="40.6" height="23.66"/><ellipse class="cls-1" cx="713.1" cy="234.6" rx="3.3" ry="6"/></g><g id="Room_3012"><rect class="cls-1" x="660.3" y="191.9" width="40.1" height="24"/><ellipse class="cls-1" cx="680.9" cy="215.9" rx="4.8" ry="9.3"/></g><g id="Room_3013"><rect class="cls-1" x="660.3" y="234.7" width="40.1" height="23.66"/><ellipse class="cls-1" cx="671.2" cy="234.5" rx="2.8" ry="9.3"/></g><g id="Room_3014"><rect class="cls-1" x="620.1" y="191.9" width="40.2" height="23.83"/><ellipse class="cls-1" cx="647.3" cy="215.8" rx="2.5" ry="9.2"/></g><g id="Room_3015"><rect class="cls-1" x="728.6" y="191.9" width="33.4" height="24"/><ellipse class="cls-1" cx="748.6" cy="215.8" rx="3.3" ry="6.1"/></g><g id="Room_3016"><rect class="cls-1" x="700.4" y="191.9" width="28.2" height="24"/><ellipse class="cls-1" cx="718.3" cy="215.9" rx="5.2" ry="6.3"/></g><g id="Room_3017"><rect class="cls-1" x="620.1" y="234.7" width="40.2" height="23.66"/><ellipse class="cls-1" cx="651.7" cy="234.6" rx="3.2" ry="6"/></g><g id="Room_3018"><rect class="cls-1" x="588.7" y="234.3" width="31.4" height="24.08"/><ellipse class="cls-1" cx="610.1" cy="233.7" rx="3.2" ry="8.5"/></g><g id="Room_3019"><rect class="cls-1" x="576.8" y="191.9" width="43.3" height="24"/><ellipse class="cls-1" cx="589.7" cy="216.1" rx="5.1" ry="6.4"/></g><g id="Room_3020"><rect class="cls-1" x="540" y="191.9" width="36.8" height="24"/><ellipse class="cls-1" cx="550.8" cy="215.8" rx="3.7" ry="9.3"/></g><g id="Steps_12"><rect class="cls-1" x="559.6" y="234.7" width="29.1" height="23.66"/></g><g id="Room_3021"><rect class="cls-1" x="524.1" y="191.7" width="15.9" height="37.86"/><ellipse class="cls-1" cx="540.1" cy="220.7" rx="7" ry="4.6"/></g><g id="Room_3022"><rect class="cls-1" x="559.6" y="258.4" width="29.1" height="21.3"/><ellipse class="cls-1" cx="558.7" cy="268" rx="4.2" ry="3.2"/></g><g id="Room_3023"><rect class="cls-1" x="559.6" y="279.6" width="29.1" height="25.35"/><ellipse class="cls-1" cx="559.1" cy="291.3" rx="8.3" ry="4.6"/></g><g id="Room_3024"><rect class="cls-1" x="559.6" y="305" width="29.1" height="23.39"/><ellipse class="cls-1" cx="558.7" cy="313.8" rx="5.9" ry="4.4"/></g><g id="Room_3025"><rect class="cls-1" x="559.6" y="328.4" width="29.1" height="25.29"/><ellipse class="cls-1" cx="560.1" cy="340.1" rx="7.3" ry="2.6"/></g><g id="Steps_13"><rect class="cls-1" x="559.8" y="354.4" width="28.9" height="20.54"/></g><g id="Room_3027"><rect class="cls-1" x="520.1" y="375" width="27" height="25.52"/><ellipse class="cls-1" cx="535" cy="375" rx="1.9" ry="6.4"/></g><g id="Room_3028"><rect class="cls-1" x="480.9" y="375" width="39.2" height="25.52"/><ellipse class="cls-1" cx="505.8" cy="373.4" rx="2.7" ry="6.2"/></g><g id="Room_3039"><rect class="cls-1" x="299.4" y="375" width="45.1" height="26.03"/><ellipse class="cls-1" cx="327.1" cy="375" rx="5.2" ry="6"/></g></svg>